G04 #@! TF.FileFunction,Copper,L1,Top,Signal*
%FSLAX46Y46*%
G04 Gerber Fmt 4.6, Leading zero omitted, Abs format (unit mm)*
G04 Created by KiCad (PCBNEW 4.0.7) date 10/19/18 23:58:52*
%MOMM*%
%LPD*%
G01*
G04 APERTURE LIST*
%ADD10C,0.100000*%
%ADD11C,0.250000*%
%ADD12R,2.000000X1.600000*%
%ADD13R,2.000000X1.700000*%
%ADD14R,0.650000X1.060000*%
%ADD15C,5.999480*%
%ADD16C,0.254000*%
G04 APERTURE END LIST*
D10*
D11*
X137082094Y-102052381D02*
X137082094Y-101052381D01*
X137415428Y-101766667D01*
X137748761Y-101052381D01*
X137748761Y-102052381D01*
X138796380Y-101957143D02*
X138748761Y-102004762D01*
X138605904Y-102052381D01*
X138510666Y-102052381D01*
X138367808Y-102004762D01*
X138272570Y-101909524D01*
X138224951Y-101814286D01*
X138177332Y-101623810D01*
X138177332Y-101480952D01*
X138224951Y-101290476D01*
X138272570Y-101195238D01*
X138367808Y-101100000D01*
X138510666Y-101052381D01*
X138605904Y-101052381D01*
X138748761Y-101100000D01*
X138796380Y-101147619D01*
X139224951Y-102052381D02*
X139224951Y-101052381D01*
X139605904Y-101052381D01*
X139701142Y-101100000D01*
X139748761Y-101147619D01*
X139796380Y-101242857D01*
X139796380Y-101385714D01*
X139748761Y-101480952D01*
X139701142Y-101528571D01*
X139605904Y-101576190D01*
X139224951Y-101576190D01*
X140129713Y-101052381D02*
X140796380Y-101052381D01*
X140367808Y-102052381D01*
X141082094Y-101052381D02*
X141701142Y-101052381D01*
X141367808Y-101433333D01*
X141510666Y-101433333D01*
X141605904Y-101480952D01*
X141653523Y-101528571D01*
X141701142Y-101623810D01*
X141701142Y-101861905D01*
X141653523Y-101957143D01*
X141605904Y-102004762D01*
X141510666Y-102052381D01*
X141224951Y-102052381D01*
X141129713Y-102004762D01*
X141082094Y-101957143D01*
X142272570Y-101480952D02*
X142177332Y-101433333D01*
X142129713Y-101385714D01*
X142082094Y-101290476D01*
X142082094Y-101242857D01*
X142129713Y-101147619D01*
X142177332Y-101100000D01*
X142272570Y-101052381D01*
X142463047Y-101052381D01*
X142558285Y-101100000D01*
X142605904Y-101147619D01*
X142653523Y-101242857D01*
X142653523Y-101290476D01*
X142605904Y-101385714D01*
X142558285Y-101433333D01*
X142463047Y-101480952D01*
X142272570Y-101480952D01*
X142177332Y-101528571D01*
X142129713Y-101576190D01*
X142082094Y-101671429D01*
X142082094Y-101861905D01*
X142129713Y-101957143D01*
X142177332Y-102004762D01*
X142272570Y-102052381D01*
X142463047Y-102052381D01*
X142558285Y-102004762D01*
X142605904Y-101957143D01*
X142653523Y-101861905D01*
X142653523Y-101671429D01*
X142605904Y-101576190D01*
X142558285Y-101528571D01*
X142463047Y-101480952D01*
X142986856Y-101052381D02*
X143605904Y-101052381D01*
X143272570Y-101433333D01*
X143415428Y-101433333D01*
X143510666Y-101480952D01*
X143558285Y-101528571D01*
X143605904Y-101623810D01*
X143605904Y-101861905D01*
X143558285Y-101957143D01*
X143510666Y-102004762D01*
X143415428Y-102052381D01*
X143129713Y-102052381D01*
X143034475Y-102004762D01*
X142986856Y-101957143D01*
X144558285Y-102052381D02*
X143986856Y-102052381D01*
X144272570Y-102052381D02*
X144272570Y-101052381D01*
X144177332Y-101195238D01*
X144082094Y-101290476D01*
X143986856Y-101338095D01*
X146224952Y-102052381D02*
X145748761Y-102052381D01*
X145748761Y-101052381D01*
X146558285Y-102052381D02*
X146558285Y-101385714D01*
X146558285Y-101052381D02*
X146510666Y-101100000D01*
X146558285Y-101147619D01*
X146605904Y-101100000D01*
X146558285Y-101052381D01*
X146558285Y-101147619D01*
X147177332Y-102052381D02*
X147082094Y-102004762D01*
X147034475Y-101957143D01*
X146986856Y-101861905D01*
X146986856Y-101576190D01*
X147034475Y-101480952D01*
X147082094Y-101433333D01*
X147177332Y-101385714D01*
X147320190Y-101385714D01*
X147415428Y-101433333D01*
X147463047Y-101480952D01*
X147510666Y-101576190D01*
X147510666Y-101861905D01*
X147463047Y-101957143D01*
X147415428Y-102004762D01*
X147320190Y-102052381D01*
X147177332Y-102052381D01*
X147939237Y-101385714D02*
X147939237Y-102052381D01*
X147939237Y-101480952D02*
X147986856Y-101433333D01*
X148082094Y-101385714D01*
X148224952Y-101385714D01*
X148320190Y-101433333D01*
X148367809Y-101528571D01*
X148367809Y-102052381D01*
X150034476Y-102004762D02*
X149939238Y-102052381D01*
X149748761Y-102052381D01*
X149653523Y-102004762D01*
X149605904Y-101957143D01*
X149558285Y-101861905D01*
X149558285Y-101576190D01*
X149605904Y-101480952D01*
X149653523Y-101433333D01*
X149748761Y-101385714D01*
X149939238Y-101385714D01*
X150034476Y-101433333D01*
X150463047Y-102052381D02*
X150463047Y-101052381D01*
X150891619Y-102052381D02*
X150891619Y-101528571D01*
X150844000Y-101433333D01*
X150748762Y-101385714D01*
X150605904Y-101385714D01*
X150510666Y-101433333D01*
X150463047Y-101480952D01*
X151796381Y-102052381D02*
X151796381Y-101528571D01*
X151748762Y-101433333D01*
X151653524Y-101385714D01*
X151463047Y-101385714D01*
X151367809Y-101433333D01*
X151796381Y-102004762D02*
X151701143Y-102052381D01*
X151463047Y-102052381D01*
X151367809Y-102004762D01*
X151320190Y-101909524D01*
X151320190Y-101814286D01*
X151367809Y-101719048D01*
X151463047Y-101671429D01*
X151701143Y-101671429D01*
X151796381Y-101623810D01*
X152272571Y-102052381D02*
X152272571Y-101385714D01*
X152272571Y-101576190D02*
X152320190Y-101480952D01*
X152367809Y-101433333D01*
X152463047Y-101385714D01*
X152558286Y-101385714D01*
X153320191Y-101385714D02*
X153320191Y-102195238D01*
X153272572Y-102290476D01*
X153224953Y-102338095D01*
X153129714Y-102385714D01*
X152986857Y-102385714D01*
X152891619Y-102338095D01*
X153320191Y-102004762D02*
X153224953Y-102052381D01*
X153034476Y-102052381D01*
X152939238Y-102004762D01*
X152891619Y-101957143D01*
X152844000Y-101861905D01*
X152844000Y-101576190D01*
X152891619Y-101480952D01*
X152939238Y-101433333D01*
X153034476Y-101385714D01*
X153224953Y-101385714D01*
X153320191Y-101433333D01*
X153796381Y-102052381D02*
X153796381Y-101385714D01*
X153796381Y-101052381D02*
X153748762Y-101100000D01*
X153796381Y-101147619D01*
X153844000Y-101100000D01*
X153796381Y-101052381D01*
X153796381Y-101147619D01*
X154272571Y-101385714D02*
X154272571Y-102052381D01*
X154272571Y-101480952D02*
X154320190Y-101433333D01*
X154415428Y-101385714D01*
X154558286Y-101385714D01*
X154653524Y-101433333D01*
X154701143Y-101528571D01*
X154701143Y-102052381D01*
X155605905Y-101385714D02*
X155605905Y-102195238D01*
X155558286Y-102290476D01*
X155510667Y-102338095D01*
X155415428Y-102385714D01*
X155272571Y-102385714D01*
X155177333Y-102338095D01*
X155605905Y-102004762D02*
X155510667Y-102052381D01*
X155320190Y-102052381D01*
X155224952Y-102004762D01*
X155177333Y-101957143D01*
X155129714Y-101861905D01*
X155129714Y-101576190D01*
X155177333Y-101480952D01*
X155224952Y-101433333D01*
X155320190Y-101385714D01*
X155510667Y-101385714D01*
X155605905Y-101433333D01*
X156844000Y-102052381D02*
X156844000Y-101052381D01*
X156844000Y-101433333D02*
X156939238Y-101385714D01*
X157129715Y-101385714D01*
X157224953Y-101433333D01*
X157272572Y-101480952D01*
X157320191Y-101576190D01*
X157320191Y-101861905D01*
X157272572Y-101957143D01*
X157224953Y-102004762D01*
X157129715Y-102052381D01*
X156939238Y-102052381D01*
X156844000Y-102004762D01*
X157891619Y-102052381D02*
X157796381Y-102004762D01*
X157748762Y-101957143D01*
X157701143Y-101861905D01*
X157701143Y-101576190D01*
X157748762Y-101480952D01*
X157796381Y-101433333D01*
X157891619Y-101385714D01*
X158034477Y-101385714D01*
X158129715Y-101433333D01*
X158177334Y-101480952D01*
X158224953Y-101576190D01*
X158224953Y-101861905D01*
X158177334Y-101957143D01*
X158129715Y-102004762D01*
X158034477Y-102052381D01*
X157891619Y-102052381D01*
X159082096Y-102052381D02*
X159082096Y-101528571D01*
X159034477Y-101433333D01*
X158939239Y-101385714D01*
X158748762Y-101385714D01*
X158653524Y-101433333D01*
X159082096Y-102004762D02*
X158986858Y-102052381D01*
X158748762Y-102052381D01*
X158653524Y-102004762D01*
X158605905Y-101909524D01*
X158605905Y-101814286D01*
X158653524Y-101719048D01*
X158748762Y-101671429D01*
X158986858Y-101671429D01*
X159082096Y-101623810D01*
X159558286Y-102052381D02*
X159558286Y-101385714D01*
X159558286Y-101576190D02*
X159605905Y-101480952D01*
X159653524Y-101433333D01*
X159748762Y-101385714D01*
X159844001Y-101385714D01*
X160605906Y-102052381D02*
X160605906Y-101052381D01*
X160605906Y-102004762D02*
X160510668Y-102052381D01*
X160320191Y-102052381D01*
X160224953Y-102004762D01*
X160177334Y-101957143D01*
X160129715Y-101861905D01*
X160129715Y-101576190D01*
X160177334Y-101480952D01*
X160224953Y-101433333D01*
X160320191Y-101385714D01*
X160510668Y-101385714D01*
X160605906Y-101433333D01*
D12*
X154210000Y-105664000D03*
X158210000Y-105664000D03*
D13*
X142462000Y-112522000D03*
X138462000Y-112522000D03*
X154464000Y-112522000D03*
X158464000Y-112522000D03*
X138462000Y-105664000D03*
X142462000Y-105664000D03*
D14*
X149286000Y-105580000D03*
X148336000Y-105580000D03*
X147386000Y-105580000D03*
X147386000Y-107780000D03*
X149286000Y-107780000D03*
D15*
X165354000Y-104394000D03*
X165354000Y-112014000D03*
X131572000Y-112014000D03*
X131572000Y-104394000D03*
D11*
X154210000Y-105664000D02*
X154210000Y-104870000D01*
X154210000Y-104870000D02*
X155194000Y-103886000D01*
X155194000Y-103886000D02*
X164338000Y-103886000D01*
X164338000Y-103886000D02*
X165354000Y-104902000D01*
X164592000Y-105664000D02*
X165354000Y-104902000D01*
X148336000Y-105580000D02*
X148336000Y-104648000D01*
X153416000Y-109220000D02*
X158210000Y-109220000D01*
X152146000Y-107950000D02*
X153416000Y-109220000D01*
X152146000Y-105156000D02*
X152146000Y-107950000D01*
X151130000Y-104140000D02*
X152146000Y-105156000D01*
X148844000Y-104140000D02*
X151130000Y-104140000D01*
X148336000Y-104648000D02*
X148844000Y-104140000D01*
X131572000Y-112014000D02*
X133604000Y-112014000D01*
X133604000Y-112014000D02*
X136906000Y-115316000D01*
X136906000Y-115316000D02*
X155670000Y-115316000D01*
X155670000Y-115316000D02*
X158464000Y-112522000D01*
X165354000Y-112522000D02*
X158464000Y-112522000D01*
X158210000Y-105664000D02*
X158210000Y-109220000D01*
X158210000Y-109220000D02*
X158210000Y-112268000D01*
X158210000Y-112268000D02*
X158464000Y-112522000D01*
X142462000Y-112522000D02*
X144780000Y-112522000D01*
X149286000Y-106238000D02*
X149286000Y-105580000D01*
X148336000Y-107188000D02*
X149286000Y-106238000D01*
X148336000Y-108966000D02*
X148336000Y-107188000D01*
X144780000Y-112522000D02*
X148336000Y-108966000D01*
X142462000Y-105664000D02*
X142462000Y-106966000D01*
X138462000Y-110966000D02*
X138462000Y-112522000D01*
X142462000Y-106966000D02*
X138462000Y-110966000D01*
X149286000Y-107780000D02*
X149722000Y-107780000D01*
X149722000Y-107780000D02*
X154464000Y-112522000D01*
X138462000Y-105664000D02*
X138684000Y-105664000D01*
X138684000Y-105664000D02*
X140462000Y-103886000D01*
X146134000Y-107780000D02*
X147386000Y-107780000D01*
X145288000Y-106934000D02*
X146134000Y-107780000D01*
X145288000Y-104902000D02*
X145288000Y-106934000D01*
X144272000Y-103886000D02*
X145288000Y-104902000D01*
X140462000Y-103886000D02*
X144272000Y-103886000D01*
X131572000Y-104394000D02*
X137192000Y-104394000D01*
X137192000Y-104394000D02*
X138462000Y-105664000D01*
D16*
G36*
X170053000Y-116713000D02*
X127127000Y-116713000D01*
X127127000Y-105113823D01*
X127936630Y-105113823D01*
X128488820Y-106450225D01*
X129510397Y-107473586D01*
X130845834Y-108028108D01*
X132291823Y-108029370D01*
X133628225Y-107477180D01*
X134651586Y-106455603D01*
X135192059Y-105154000D01*
X136814560Y-105154000D01*
X136814560Y-106514000D01*
X136858838Y-106749317D01*
X136997910Y-106965441D01*
X137210110Y-107110431D01*
X137462000Y-107161440D01*
X139462000Y-107161440D01*
X139697317Y-107117162D01*
X139913441Y-106978090D01*
X140058431Y-106765890D01*
X140109440Y-106514000D01*
X140109440Y-105313362D01*
X140776802Y-104646000D01*
X140848581Y-104646000D01*
X140814560Y-104814000D01*
X140814560Y-106514000D01*
X140858838Y-106749317D01*
X140997910Y-106965441D01*
X141210110Y-107110431D01*
X141237267Y-107115931D01*
X137924599Y-110428599D01*
X137759852Y-110675161D01*
X137702000Y-110966000D01*
X137702000Y-111024560D01*
X137462000Y-111024560D01*
X137226683Y-111068838D01*
X137010559Y-111207910D01*
X136865569Y-111420110D01*
X136814560Y-111672000D01*
X136814560Y-113372000D01*
X136858838Y-113607317D01*
X136997910Y-113823441D01*
X137210110Y-113968431D01*
X137462000Y-114019440D01*
X139462000Y-114019440D01*
X139697317Y-113975162D01*
X139913441Y-113836090D01*
X140058431Y-113623890D01*
X140109440Y-113372000D01*
X140109440Y-111672000D01*
X140065162Y-111436683D01*
X139926090Y-111220559D01*
X139713890Y-111075569D01*
X139475507Y-111027295D01*
X142999401Y-107503401D01*
X143164148Y-107256840D01*
X143183124Y-107161440D01*
X143462000Y-107161440D01*
X143697317Y-107117162D01*
X143913441Y-106978090D01*
X144058431Y-106765890D01*
X144109440Y-106514000D01*
X144109440Y-104814000D01*
X144105788Y-104794590D01*
X144528000Y-105216802D01*
X144528000Y-106934000D01*
X144585852Y-107224839D01*
X144750599Y-107471401D01*
X145596599Y-108317401D01*
X145843161Y-108482148D01*
X146134000Y-108540000D01*
X146456838Y-108540000D01*
X146457838Y-108545317D01*
X146596910Y-108761441D01*
X146809110Y-108906431D01*
X147061000Y-108957440D01*
X147269758Y-108957440D01*
X144465198Y-111762000D01*
X144109440Y-111762000D01*
X144109440Y-111672000D01*
X144065162Y-111436683D01*
X143926090Y-111220559D01*
X143713890Y-111075569D01*
X143462000Y-111024560D01*
X141462000Y-111024560D01*
X141226683Y-111068838D01*
X141010559Y-111207910D01*
X140865569Y-111420110D01*
X140814560Y-111672000D01*
X140814560Y-113372000D01*
X140858838Y-113607317D01*
X140997910Y-113823441D01*
X141210110Y-113968431D01*
X141462000Y-114019440D01*
X143462000Y-114019440D01*
X143697317Y-113975162D01*
X143913441Y-113836090D01*
X144058431Y-113623890D01*
X144109440Y-113372000D01*
X144109440Y-113282000D01*
X144780000Y-113282000D01*
X145070839Y-113224148D01*
X145317401Y-113059401D01*
X148873401Y-109503401D01*
X149038148Y-109256840D01*
X149047746Y-109208586D01*
X149096000Y-108966000D01*
X149096000Y-108957440D01*
X149611000Y-108957440D01*
X149790805Y-108923607D01*
X152816560Y-111949362D01*
X152816560Y-113372000D01*
X152860838Y-113607317D01*
X152999910Y-113823441D01*
X153212110Y-113968431D01*
X153464000Y-114019440D01*
X155464000Y-114019440D01*
X155699317Y-113975162D01*
X155915441Y-113836090D01*
X156060431Y-113623890D01*
X156111440Y-113372000D01*
X156111440Y-111672000D01*
X156067162Y-111436683D01*
X155928090Y-111220559D01*
X155715890Y-111075569D01*
X155464000Y-111024560D01*
X154041362Y-111024560D01*
X150259401Y-107242599D01*
X150256709Y-107240800D01*
X150214162Y-107014683D01*
X150075090Y-106798559D01*
X149899768Y-106678767D01*
X150062441Y-106574090D01*
X150207431Y-106361890D01*
X150258440Y-106110000D01*
X150258440Y-105050000D01*
X150230216Y-104900000D01*
X150815198Y-104900000D01*
X151386000Y-105470802D01*
X151386000Y-107950000D01*
X151443852Y-108240839D01*
X151608599Y-108487401D01*
X152878599Y-109757401D01*
X153125160Y-109922148D01*
X153416000Y-109980000D01*
X157450000Y-109980000D01*
X157450000Y-111027194D01*
X157228683Y-111068838D01*
X157012559Y-111207910D01*
X156867569Y-111420110D01*
X156816560Y-111672000D01*
X156816560Y-113094638D01*
X155355198Y-114556000D01*
X137220802Y-114556000D01*
X135206281Y-112541479D01*
X135207370Y-111294177D01*
X134655180Y-109957775D01*
X133633603Y-108934414D01*
X132298166Y-108379892D01*
X130852177Y-108378630D01*
X129515775Y-108930820D01*
X128492414Y-109952397D01*
X127937892Y-111287834D01*
X127936630Y-112733823D01*
X128488820Y-114070225D01*
X129510397Y-115093586D01*
X130845834Y-115648108D01*
X132291823Y-115649370D01*
X133628225Y-115097180D01*
X134621167Y-114105969D01*
X136368599Y-115853401D01*
X136615160Y-116018148D01*
X136906000Y-116076000D01*
X155670000Y-116076000D01*
X155960839Y-116018148D01*
X156207401Y-115853401D01*
X158041362Y-114019440D01*
X159464000Y-114019440D01*
X159699317Y-113975162D01*
X159915441Y-113836090D01*
X160060431Y-113623890D01*
X160111440Y-113372000D01*
X160111440Y-113282000D01*
X161945132Y-113282000D01*
X162270820Y-114070225D01*
X163292397Y-115093586D01*
X164627834Y-115648108D01*
X166073823Y-115649370D01*
X167410225Y-115097180D01*
X168433586Y-114075603D01*
X168988108Y-112740166D01*
X168989370Y-111294177D01*
X168437180Y-109957775D01*
X167415603Y-108934414D01*
X166080166Y-108379892D01*
X164634177Y-108378630D01*
X163297775Y-108930820D01*
X162274414Y-109952397D01*
X161719892Y-111287834D01*
X161719478Y-111762000D01*
X160111440Y-111762000D01*
X160111440Y-111672000D01*
X160067162Y-111436683D01*
X159928090Y-111220559D01*
X159715890Y-111075569D01*
X159464000Y-111024560D01*
X158970000Y-111024560D01*
X158970000Y-107111440D01*
X159210000Y-107111440D01*
X159445317Y-107067162D01*
X159661441Y-106928090D01*
X159806431Y-106715890D01*
X159857440Y-106464000D01*
X159857440Y-104864000D01*
X159816420Y-104646000D01*
X161719038Y-104646000D01*
X161718630Y-105113823D01*
X162270820Y-106450225D01*
X163292397Y-107473586D01*
X164627834Y-108028108D01*
X166073823Y-108029370D01*
X167410225Y-107477180D01*
X168433586Y-106455603D01*
X168988108Y-105120166D01*
X168989370Y-103674177D01*
X168437180Y-102337775D01*
X167415603Y-101314414D01*
X166080166Y-100759892D01*
X164634177Y-100758630D01*
X163297775Y-101310820D01*
X162274414Y-102332397D01*
X161944881Y-103126000D01*
X161479001Y-103126000D01*
X161479001Y-100140000D01*
X136208999Y-100140000D01*
X136208999Y-103160000D01*
X140291072Y-103160000D01*
X140171161Y-103183852D01*
X139924599Y-103348599D01*
X139106638Y-104166560D01*
X138039362Y-104166560D01*
X137729401Y-103856599D01*
X137482839Y-103691852D01*
X137192000Y-103634000D01*
X135190769Y-103634000D01*
X134655180Y-102337775D01*
X133633603Y-101314414D01*
X132298166Y-100759892D01*
X130852177Y-100758630D01*
X129515775Y-101310820D01*
X128492414Y-102332397D01*
X127937892Y-103667834D01*
X127936630Y-105113823D01*
X127127000Y-105113823D01*
X127127000Y-99187000D01*
X170053000Y-99187000D01*
X170053000Y-116713000D01*
X170053000Y-116713000D01*
G37*
X170053000Y-116713000D02*
X127127000Y-116713000D01*
X127127000Y-105113823D01*
X127936630Y-105113823D01*
X128488820Y-106450225D01*
X129510397Y-107473586D01*
X130845834Y-108028108D01*
X132291823Y-108029370D01*
X133628225Y-107477180D01*
X134651586Y-106455603D01*
X135192059Y-105154000D01*
X136814560Y-105154000D01*
X136814560Y-106514000D01*
X136858838Y-106749317D01*
X136997910Y-106965441D01*
X137210110Y-107110431D01*
X137462000Y-107161440D01*
X139462000Y-107161440D01*
X139697317Y-107117162D01*
X139913441Y-106978090D01*
X140058431Y-106765890D01*
X140109440Y-106514000D01*
X140109440Y-105313362D01*
X140776802Y-104646000D01*
X140848581Y-104646000D01*
X140814560Y-104814000D01*
X140814560Y-106514000D01*
X140858838Y-106749317D01*
X140997910Y-106965441D01*
X141210110Y-107110431D01*
X141237267Y-107115931D01*
X137924599Y-110428599D01*
X137759852Y-110675161D01*
X137702000Y-110966000D01*
X137702000Y-111024560D01*
X137462000Y-111024560D01*
X137226683Y-111068838D01*
X137010559Y-111207910D01*
X136865569Y-111420110D01*
X136814560Y-111672000D01*
X136814560Y-113372000D01*
X136858838Y-113607317D01*
X136997910Y-113823441D01*
X137210110Y-113968431D01*
X137462000Y-114019440D01*
X139462000Y-114019440D01*
X139697317Y-113975162D01*
X139913441Y-113836090D01*
X140058431Y-113623890D01*
X140109440Y-113372000D01*
X140109440Y-111672000D01*
X140065162Y-111436683D01*
X139926090Y-111220559D01*
X139713890Y-111075569D01*
X139475507Y-111027295D01*
X142999401Y-107503401D01*
X143164148Y-107256840D01*
X143183124Y-107161440D01*
X143462000Y-107161440D01*
X143697317Y-107117162D01*
X143913441Y-106978090D01*
X144058431Y-106765890D01*
X144109440Y-106514000D01*
X144109440Y-104814000D01*
X144105788Y-104794590D01*
X144528000Y-105216802D01*
X144528000Y-106934000D01*
X144585852Y-107224839D01*
X144750599Y-107471401D01*
X145596599Y-108317401D01*
X145843161Y-108482148D01*
X146134000Y-108540000D01*
X146456838Y-108540000D01*
X146457838Y-108545317D01*
X146596910Y-108761441D01*
X146809110Y-108906431D01*
X147061000Y-108957440D01*
X147269758Y-108957440D01*
X144465198Y-111762000D01*
X144109440Y-111762000D01*
X144109440Y-111672000D01*
X144065162Y-111436683D01*
X143926090Y-111220559D01*
X143713890Y-111075569D01*
X143462000Y-111024560D01*
X141462000Y-111024560D01*
X141226683Y-111068838D01*
X141010559Y-111207910D01*
X140865569Y-111420110D01*
X140814560Y-111672000D01*
X140814560Y-113372000D01*
X140858838Y-113607317D01*
X140997910Y-113823441D01*
X141210110Y-113968431D01*
X141462000Y-114019440D01*
X143462000Y-114019440D01*
X143697317Y-113975162D01*
X143913441Y-113836090D01*
X144058431Y-113623890D01*
X144109440Y-113372000D01*
X144109440Y-113282000D01*
X144780000Y-113282000D01*
X145070839Y-113224148D01*
X145317401Y-113059401D01*
X148873401Y-109503401D01*
X149038148Y-109256840D01*
X149047746Y-109208586D01*
X149096000Y-108966000D01*
X149096000Y-108957440D01*
X149611000Y-108957440D01*
X149790805Y-108923607D01*
X152816560Y-111949362D01*
X152816560Y-113372000D01*
X152860838Y-113607317D01*
X152999910Y-113823441D01*
X153212110Y-113968431D01*
X153464000Y-114019440D01*
X155464000Y-114019440D01*
X155699317Y-113975162D01*
X155915441Y-113836090D01*
X156060431Y-113623890D01*
X156111440Y-113372000D01*
X156111440Y-111672000D01*
X156067162Y-111436683D01*
X155928090Y-111220559D01*
X155715890Y-111075569D01*
X155464000Y-111024560D01*
X154041362Y-111024560D01*
X150259401Y-107242599D01*
X150256709Y-107240800D01*
X150214162Y-107014683D01*
X150075090Y-106798559D01*
X149899768Y-106678767D01*
X150062441Y-106574090D01*
X150207431Y-106361890D01*
X150258440Y-106110000D01*
X150258440Y-105050000D01*
X150230216Y-104900000D01*
X150815198Y-104900000D01*
X151386000Y-105470802D01*
X151386000Y-107950000D01*
X151443852Y-108240839D01*
X151608599Y-108487401D01*
X152878599Y-109757401D01*
X153125160Y-109922148D01*
X153416000Y-109980000D01*
X157450000Y-109980000D01*
X157450000Y-111027194D01*
X157228683Y-111068838D01*
X157012559Y-111207910D01*
X156867569Y-111420110D01*
X156816560Y-111672000D01*
X156816560Y-113094638D01*
X155355198Y-114556000D01*
X137220802Y-114556000D01*
X135206281Y-112541479D01*
X135207370Y-111294177D01*
X134655180Y-109957775D01*
X133633603Y-108934414D01*
X132298166Y-108379892D01*
X130852177Y-108378630D01*
X129515775Y-108930820D01*
X128492414Y-109952397D01*
X127937892Y-111287834D01*
X127936630Y-112733823D01*
X128488820Y-114070225D01*
X129510397Y-115093586D01*
X130845834Y-115648108D01*
X132291823Y-115649370D01*
X133628225Y-115097180D01*
X134621167Y-114105969D01*
X136368599Y-115853401D01*
X136615160Y-116018148D01*
X136906000Y-116076000D01*
X155670000Y-116076000D01*
X155960839Y-116018148D01*
X156207401Y-115853401D01*
X158041362Y-114019440D01*
X159464000Y-114019440D01*
X159699317Y-113975162D01*
X159915441Y-113836090D01*
X160060431Y-113623890D01*
X160111440Y-113372000D01*
X160111440Y-113282000D01*
X161945132Y-113282000D01*
X162270820Y-114070225D01*
X163292397Y-115093586D01*
X164627834Y-115648108D01*
X166073823Y-115649370D01*
X167410225Y-115097180D01*
X168433586Y-114075603D01*
X168988108Y-112740166D01*
X168989370Y-111294177D01*
X168437180Y-109957775D01*
X167415603Y-108934414D01*
X166080166Y-108379892D01*
X164634177Y-108378630D01*
X163297775Y-108930820D01*
X162274414Y-109952397D01*
X161719892Y-111287834D01*
X161719478Y-111762000D01*
X160111440Y-111762000D01*
X160111440Y-111672000D01*
X160067162Y-111436683D01*
X159928090Y-111220559D01*
X159715890Y-111075569D01*
X159464000Y-111024560D01*
X158970000Y-111024560D01*
X158970000Y-107111440D01*
X159210000Y-107111440D01*
X159445317Y-107067162D01*
X159661441Y-106928090D01*
X159806431Y-106715890D01*
X159857440Y-106464000D01*
X159857440Y-104864000D01*
X159816420Y-104646000D01*
X161719038Y-104646000D01*
X161718630Y-105113823D01*
X162270820Y-106450225D01*
X163292397Y-107473586D01*
X164627834Y-108028108D01*
X166073823Y-108029370D01*
X167410225Y-107477180D01*
X168433586Y-106455603D01*
X168988108Y-105120166D01*
X168989370Y-103674177D01*
X168437180Y-102337775D01*
X167415603Y-101314414D01*
X166080166Y-100759892D01*
X164634177Y-100758630D01*
X163297775Y-101310820D01*
X162274414Y-102332397D01*
X161944881Y-103126000D01*
X161479001Y-103126000D01*
X161479001Y-100140000D01*
X136208999Y-100140000D01*
X136208999Y-103160000D01*
X140291072Y-103160000D01*
X140171161Y-103183852D01*
X139924599Y-103348599D01*
X139106638Y-104166560D01*
X138039362Y-104166560D01*
X137729401Y-103856599D01*
X137482839Y-103691852D01*
X137192000Y-103634000D01*
X135190769Y-103634000D01*
X134655180Y-102337775D01*
X133633603Y-101314414D01*
X132298166Y-100759892D01*
X130852177Y-100758630D01*
X129515775Y-101310820D01*
X128492414Y-102332397D01*
X127937892Y-103667834D01*
X127936630Y-105113823D01*
X127127000Y-105113823D01*
X127127000Y-99187000D01*
X170053000Y-99187000D01*
X170053000Y-116713000D01*
G36*
X156562560Y-104864000D02*
X156562560Y-106464000D01*
X156606838Y-106699317D01*
X156745910Y-106915441D01*
X156958110Y-107060431D01*
X157210000Y-107111440D01*
X157450000Y-107111440D01*
X157450000Y-108460000D01*
X153730802Y-108460000D01*
X152906000Y-107635198D01*
X152906000Y-107024826D01*
X152958110Y-107060431D01*
X153210000Y-107111440D01*
X155210000Y-107111440D01*
X155445317Y-107067162D01*
X155661441Y-106928090D01*
X155806431Y-106715890D01*
X155857440Y-106464000D01*
X155857440Y-104864000D01*
X155816420Y-104646000D01*
X156606706Y-104646000D01*
X156562560Y-104864000D01*
X156562560Y-104864000D01*
G37*
X156562560Y-104864000D02*
X156562560Y-106464000D01*
X156606838Y-106699317D01*
X156745910Y-106915441D01*
X156958110Y-107060431D01*
X157210000Y-107111440D01*
X157450000Y-107111440D01*
X157450000Y-108460000D01*
X153730802Y-108460000D01*
X152906000Y-107635198D01*
X152906000Y-107024826D01*
X152958110Y-107060431D01*
X153210000Y-107111440D01*
X155210000Y-107111440D01*
X155445317Y-107067162D01*
X155661441Y-106928090D01*
X155806431Y-106715890D01*
X155857440Y-106464000D01*
X155857440Y-104864000D01*
X155816420Y-104646000D01*
X156606706Y-104646000D01*
X156562560Y-104864000D01*
G36*
X154903161Y-103183852D02*
X154656599Y-103348599D01*
X153788638Y-104216560D01*
X153210000Y-104216560D01*
X152974683Y-104260838D01*
X152758559Y-104399910D01*
X152639281Y-104574479D01*
X151667401Y-103602599D01*
X151420839Y-103437852D01*
X151130000Y-103380000D01*
X148844000Y-103380000D01*
X148553161Y-103437852D01*
X148553159Y-103437853D01*
X148553160Y-103437853D01*
X148306599Y-103602599D01*
X147798599Y-104110599D01*
X147633852Y-104357161D01*
X147624821Y-104402560D01*
X147061000Y-104402560D01*
X146825683Y-104446838D01*
X146609559Y-104585910D01*
X146464569Y-104798110D01*
X146413560Y-105050000D01*
X146413560Y-106110000D01*
X146457838Y-106345317D01*
X146596910Y-106561441D01*
X146772232Y-106681233D01*
X146609559Y-106785910D01*
X146464569Y-106998110D01*
X146460136Y-107020000D01*
X146448802Y-107020000D01*
X146048000Y-106619198D01*
X146048000Y-104902000D01*
X145990148Y-104611161D01*
X145825401Y-104364599D01*
X144809401Y-103348599D01*
X144562839Y-103183852D01*
X144442928Y-103160000D01*
X155023072Y-103160000D01*
X154903161Y-103183852D01*
X154903161Y-103183852D01*
G37*
X154903161Y-103183852D02*
X154656599Y-103348599D01*
X153788638Y-104216560D01*
X153210000Y-104216560D01*
X152974683Y-104260838D01*
X152758559Y-104399910D01*
X152639281Y-104574479D01*
X151667401Y-103602599D01*
X151420839Y-103437852D01*
X151130000Y-103380000D01*
X148844000Y-103380000D01*
X148553161Y-103437852D01*
X148553159Y-103437853D01*
X148553160Y-103437853D01*
X148306599Y-103602599D01*
X147798599Y-104110599D01*
X147633852Y-104357161D01*
X147624821Y-104402560D01*
X147061000Y-104402560D01*
X146825683Y-104446838D01*
X146609559Y-104585910D01*
X146464569Y-104798110D01*
X146413560Y-105050000D01*
X146413560Y-106110000D01*
X146457838Y-106345317D01*
X146596910Y-106561441D01*
X146772232Y-106681233D01*
X146609559Y-106785910D01*
X146464569Y-106998110D01*
X146460136Y-107020000D01*
X146448802Y-107020000D01*
X146048000Y-106619198D01*
X146048000Y-104902000D01*
X145990148Y-104611161D01*
X145825401Y-104364599D01*
X144809401Y-103348599D01*
X144562839Y-103183852D01*
X144442928Y-103160000D01*
X155023072Y-103160000D01*
X154903161Y-103183852D01*
M02*
