G04 #@! TF.FileFunction,Legend,Top*
%FSLAX46Y46*%
G04 Gerber Fmt 4.6, Leading zero omitted, Abs format (unit mm)*
G04 Created by KiCad (PCBNEW 4.0.7) date 10/19/18 23:58:52*
%MOMM*%
%LPD*%
G01*
G04 APERTURE LIST*
%ADD10C,0.100000*%
%ADD11C,0.120000*%
%ADD12C,0.150000*%
G04 APERTURE END LIST*
D10*
D11*
X157210000Y-104644000D02*
X155210000Y-104644000D01*
X155210000Y-106684000D02*
X157210000Y-106684000D01*
X143562000Y-113472000D02*
X143562000Y-111572000D01*
X143562000Y-111572000D02*
X138862000Y-111572000D01*
X143562000Y-113472000D02*
X138862000Y-113472000D01*
X157464000Y-113592000D02*
X155464000Y-113592000D01*
X155464000Y-111452000D02*
X157464000Y-111452000D01*
X141462000Y-106734000D02*
X139462000Y-106734000D01*
X139462000Y-104594000D02*
X141462000Y-104594000D01*
X146726000Y-105780000D02*
X146726000Y-107580000D01*
X149946000Y-107580000D02*
X149946000Y-105130000D01*
D12*
X156043334Y-104271143D02*
X155995715Y-104318762D01*
X155852858Y-104366381D01*
X155757620Y-104366381D01*
X155614762Y-104318762D01*
X155519524Y-104223524D01*
X155471905Y-104128286D01*
X155424286Y-103937810D01*
X155424286Y-103794952D01*
X155471905Y-103604476D01*
X155519524Y-103509238D01*
X155614762Y-103414000D01*
X155757620Y-103366381D01*
X155852858Y-103366381D01*
X155995715Y-103414000D01*
X156043334Y-103461619D01*
X156995715Y-104366381D02*
X156424286Y-104366381D01*
X156710000Y-104366381D02*
X156710000Y-103366381D01*
X156614762Y-103509238D01*
X156519524Y-103604476D01*
X156424286Y-103652095D01*
X139723905Y-114824381D02*
X139723905Y-113824381D01*
X139962000Y-113824381D01*
X140104858Y-113872000D01*
X140200096Y-113967238D01*
X140247715Y-114062476D01*
X140295334Y-114252952D01*
X140295334Y-114395810D01*
X140247715Y-114586286D01*
X140200096Y-114681524D01*
X140104858Y-114776762D01*
X139962000Y-114824381D01*
X139723905Y-114824381D01*
X141247715Y-114824381D02*
X140676286Y-114824381D01*
X140962000Y-114824381D02*
X140962000Y-113824381D01*
X140866762Y-113967238D01*
X140771524Y-114062476D01*
X140676286Y-114110095D01*
X156297334Y-111124381D02*
X155964000Y-110648190D01*
X155725905Y-111124381D02*
X155725905Y-110124381D01*
X156106858Y-110124381D01*
X156202096Y-110172000D01*
X156249715Y-110219619D01*
X156297334Y-110314857D01*
X156297334Y-110457714D01*
X156249715Y-110552952D01*
X156202096Y-110600571D01*
X156106858Y-110648190D01*
X155725905Y-110648190D01*
X157249715Y-111124381D02*
X156678286Y-111124381D01*
X156964000Y-111124381D02*
X156964000Y-110124381D01*
X156868762Y-110267238D01*
X156773524Y-110362476D01*
X156678286Y-110410095D01*
X140295334Y-104266381D02*
X139962000Y-103790190D01*
X139723905Y-104266381D02*
X139723905Y-103266381D01*
X140104858Y-103266381D01*
X140200096Y-103314000D01*
X140247715Y-103361619D01*
X140295334Y-103456857D01*
X140295334Y-103599714D01*
X140247715Y-103694952D01*
X140200096Y-103742571D01*
X140104858Y-103790190D01*
X139723905Y-103790190D01*
X140676286Y-103361619D02*
X140723905Y-103314000D01*
X140819143Y-103266381D01*
X141057239Y-103266381D01*
X141152477Y-103314000D01*
X141200096Y-103361619D01*
X141247715Y-103456857D01*
X141247715Y-103552095D01*
X141200096Y-103694952D01*
X140628667Y-104266381D01*
X141247715Y-104266381D01*
X150688381Y-107441905D02*
X151497905Y-107441905D01*
X151593143Y-107394286D01*
X151640762Y-107346667D01*
X151688381Y-107251429D01*
X151688381Y-107060952D01*
X151640762Y-106965714D01*
X151593143Y-106918095D01*
X151497905Y-106870476D01*
X150688381Y-106870476D01*
X151688381Y-105870476D02*
X151688381Y-106441905D01*
X151688381Y-106156191D02*
X150688381Y-106156191D01*
X150831238Y-106251429D01*
X150926476Y-106346667D01*
X150974095Y-106441905D01*
X168108381Y-108283333D02*
X168822667Y-108283333D01*
X168965524Y-108330953D01*
X169060762Y-108426191D01*
X169108381Y-108569048D01*
X169108381Y-108664286D01*
X169108381Y-107283333D02*
X169108381Y-107854762D01*
X169108381Y-107569048D02*
X168108381Y-107569048D01*
X168251238Y-107664286D01*
X168346476Y-107759524D01*
X168394095Y-107854762D01*
X127722381Y-108791333D02*
X128436667Y-108791333D01*
X128579524Y-108838953D01*
X128674762Y-108934191D01*
X128722381Y-109077048D01*
X128722381Y-109172286D01*
X127817619Y-108362762D02*
X127770000Y-108315143D01*
X127722381Y-108219905D01*
X127722381Y-107981809D01*
X127770000Y-107886571D01*
X127817619Y-107838952D01*
X127912857Y-107791333D01*
X128008095Y-107791333D01*
X128150952Y-107838952D01*
X128722381Y-108410381D01*
X128722381Y-107791333D01*
M02*
